<svg width="50" height="50" viewBox="0 0 50 50" fill="none" xmlns="http://www.w3.org/2000/svg">
<path d="M25 47.6875C37.53 47.6875 47.6875 37.53 47.6875 25C47.6875 12.47 37.53 2.3125 25 2.3125C12.47 2.3125 2.3125 12.47 2.3125 25C2.3125 37.53 12.47 47.6875 25 47.6875Z" fill="#CCE4FF"/>
<path d="M25 49.75C38.6465 49.75 49.75 38.6476 49.75 25C49.75 11.3524 38.6465 0.25 25 0.25C11.3535 0.25 0.25 11.3524 0.25 25C0.25 38.6476 11.3535 49.75 25 49.75ZM25 4.375C36.3726 4.375 45.625 13.6274 45.625 25C45.625 36.3726 36.3726 45.625 25 45.625C13.6274 45.625 4.375 36.3726 4.375 25C4.375 13.6274 13.6274 4.375 25 4.375Z" fill="#007AFF"/>
<path d="M15.6847 33.25H33.25V29.125H21.9403L23.7078 25H31.1875V20.875H25.4764L27.7081 15.6672L23.9162 14.0419L20.9884 20.875H14.6875V25H19.2198L15.6847 33.25Z" fill="#007AFF"/>
</svg>
