<svg width="50" height="50" viewBox="0 0 50 50" fill="none" xmlns="http://www.w3.org/2000/svg">
<g clip-path="url(#clip0_1_885)">
<path d="M25 50C38.8071 50 50 38.8071 50 25C50 11.1929 38.8071 0 25 0C11.1929 0 0 11.1929 0 25C0 38.8071 11.1929 50 25 50Z" fill="#F5AC6E"/>
<path d="M25.0001 45.4742C36.3077 45.4742 45.4743 36.3076 45.4743 25C45.4743 13.6925 36.3077 4.52589 25.0001 4.52589C13.6926 4.52589 4.526 13.6925 4.526 25C4.526 36.3076 13.6926 45.4742 25.0001 45.4742Z" fill="#F5AC6E"/>
<path d="M25.9104 15.0028C25.4215 15.0028 25.0651 14.5388 25.1914 14.0666L25.8645 11.5517C25.9707 11.1548 26.3785 10.9193 26.7753 11.0254C27.1721 11.1316 27.4077 11.5395 27.3015 11.9362L26.6284 14.4511C26.5394 14.7836 26.2389 15.0028 25.9104 15.0028Z" fill="white"/>
<path d="M30.9393 16.35C30.449 16.35 30.0941 15.8847 30.2204 15.4134L30.8945 12.8994C31.0008 12.5026 31.4087 12.2674 31.8055 12.3736C32.2023 12.48 32.4376 12.8879 32.3313 13.2847L31.6572 15.7987C31.5682 16.1309 31.2677 16.35 30.9393 16.35Z" fill="white"/>
<path d="M19.75 37.9932C19.2596 37.9932 18.9047 37.5278 19.0311 37.0565L19.701 34.5584C19.7804 34.2329 20.0737 33.9909 20.4236 33.9909C20.8312 33.9909 21.1673 34.3201 21.1673 34.7352C21.1673 34.8742 21.1987 34.7161 20.4679 37.4418C20.3788 37.774 20.0783 37.9932 19.75 37.9932Z" fill="white"/>
<path d="M24.7788 39.3403C24.2885 39.3403 23.9335 38.875 24.0599 38.4038L24.734 35.8889C24.8403 35.4922 25.248 35.2566 25.6449 35.363C26.0417 35.4694 26.2771 35.8773 26.1708 36.274L25.4967 38.7889C25.4077 39.1212 25.1071 39.3403 24.7788 39.3403Z" fill="white"/>
<path d="M15.5735 33.5935C15.1605 33.4884 14.916 33.0858 15.0266 32.6937L15.6169 30.6018C15.7064 30.2845 16.0069 30.0552 16.3528 30.0573C17.3414 30.0634 18.2486 29.4395 18.5166 28.4907L21.1447 19.1818C21.4134 18.2193 20.9469 17.2616 20.1043 16.8027C19.8011 16.6377 19.6548 16.2983 19.7453 15.9778L20.3358 13.8853C20.4464 13.4933 20.8703 13.2605 21.2833 13.3655L30.8043 15.787C35.9413 17.0941 36.5944 24.6927 31.4632 26.842C35.7265 29.7068 33.4874 38.1478 25.0015 35.992C24.9881 35.992 15.5886 33.5973 15.5735 33.5935ZM31.1391 22.1008C31.5346 20.6955 30.6531 19.2676 29.1893 18.8943L26.3385 18.1695C25.9255 18.0645 25.5011 18.2972 25.3905 18.6892L24.3639 22.3269C24.2533 22.7189 24.4984 23.1218 24.9114 23.2268L27.7621 23.9515C29.2329 24.3263 30.7452 23.4969 31.1391 22.1008ZM29.1777 30.8255C29.5715 29.4285 28.6988 27.9938 27.227 27.6191L23.8159 26.7519C23.403 26.6469 22.9786 26.8796 22.868 27.2715L21.641 31.6182C26.1075 32.7545 26.0267 32.7663 26.5149 32.7663C27.7331 32.7663 28.8468 31.9948 29.1777 30.8255Z" fill="white"/>
</g>
<defs>
<clipPath id="clip0_1_885">
<rect width="50" height="50" fill="white"/>
</clipPath>
</defs>
</svg>
