<svg width="52" height="51" viewBox="0 0 52 51" fill="none" xmlns="http://www.w3.org/2000/svg">
<path d="M26 50.3182C40.3594 50.3182 52 39.2067 52 25.5C52 11.7933 40.3594 0.68182 26 0.68182C11.6406 0.68182 0 11.7933 0 25.5C0 39.2067 11.6406 50.3182 26 50.3182Z" fill="#8AC9FE"/>
<path d="M37.2641 3.12572C40.3158 7.1928 42.1126 12.176 42.1126 17.5603C42.1126 31.267 30.472 42.3785 16.1126 42.3785C12.0771 42.3785 8.25644 41.5008 4.84851 39.9347C9.56548 46.2212 17.2812 50.3183 26 50.3183C40.3594 50.3183 52 39.2068 52 25.5001C52 15.6454 45.9828 7.1324 37.2641 3.12572Z" fill="#60B7FF"/>
<path d="M25.9994 47.1106C38.503 47.1106 48.6392 37.4352 48.6392 25.4999C48.6392 13.5646 38.503 3.88917 25.9994 3.88917C13.4958 3.88917 3.35962 13.5646 3.35962 25.4999C3.35962 37.4352 13.4958 47.1106 25.9994 47.1106Z" fill="#EAF6FF"/>
<path d="M40.48 8.88737C41.5352 11.5873 42.1133 14.5091 42.1133 17.5602C42.1133 31.2669 30.4727 42.3783 16.1133 42.3783C14.4786 42.3783 12.8798 42.2328 11.3289 41.9574C15.2806 45.1704 20.4029 47.1107 26.0006 47.1107C38.5042 47.1107 48.6404 37.4352 48.6404 25.4999C48.6404 18.8216 45.4661 12.8515 40.48 8.88737Z" fill="#D8ECFE"/>
<path d="M25.6949 12.5329L18.3928 23.7735C18.3047 23.9092 18.3476 24.0874 18.4891 24.1726L25.9381 28.6635C26.0387 28.7241 26.1669 28.7233 26.2667 28.6615L33.5136 24.1746C33.6532 24.0881 33.6943 23.9106 33.6058 23.7759L26.2119 12.5315C26.0921 12.3493 25.8137 12.3501 25.6949 12.5329Z" fill="#60B7FF"/>
<path d="M26.2063 32.5524L32.6069 28.7525C32.8844 28.5878 33.202 28.8989 33.0223 29.1594L26.5734 38.51C26.4559 38.6804 26.1958 38.6854 26.0713 38.5195L19.093 29.225C18.8993 28.967 19.2169 28.6416 19.5002 28.8077L25.8859 32.5531C25.9843 32.6109 26.1083 32.6106 26.2063 32.5524Z" fill="#60B7FF"/>
</svg>
