<svg width="210" height="41" viewBox="0 0 210 41" fill="none" xmlns="http://www.w3.org/2000/svg">
<path d="M1 1.5H39.3028C39.9213 1.5 40.505 1.78614 40.8838 2.27504L68.2026 37.5333C69.1829 38.7986 71.1784 38.4569 71.682 36.9376L79.764 12.5539C79.9573 11.9706 80.408 11.5085 80.9863 11.3008L107.247 1.86886C107.887 1.63895 108.6 1.75011 109.14 2.16395L157.305 39.0925C158.273 39.8346 159.673 39.5451 160.268 38.4802L174.862 12.3375C175.115 11.8837 175.535 11.5463 176.033 11.3968L209 1.5" stroke="url(#paint0_linear_1_832)" stroke-width="2" stroke-linecap="round" stroke-linejoin="round"/>
<path d="M1 1.5H39.3028C39.9213 1.5 40.505 1.78614 40.8838 2.27504L68.2026 37.5333C69.1829 38.7986 71.1784 38.4569 71.682 36.9376L79.764 12.5539C79.9573 11.9706 80.408 11.5085 80.9863 11.3008L107.247 1.86886C107.887 1.63895 108.6 1.75011 109.14 2.16395L157.305 39.0925C158.273 39.8346 159.673 39.5451 160.268 38.4802L174.862 12.3375C175.115 11.8837 175.535 11.5463 176.033 11.3968L209 1.5" stroke="url(#paint1_linear_1_832)" stroke-width="2" stroke-linecap="round" stroke-linejoin="round"/>
<defs>
<linearGradient id="paint0_linear_1_832" x1="209" y1="11.2499" x2="6.1894" y2="12.1744" gradientUnits="userSpaceOnUse">
<stop stop-color="#7517F8"/>
<stop offset="0.927083" stop-color="#E323FF"/>
</linearGradient>
<linearGradient id="paint1_linear_1_832" x1="1" y1="40.5" x2="209" y2="40.5" gradientUnits="userSpaceOnUse">
<stop stop-color="#3C354A"/>
<stop offset="1" stop-color="white" stop-opacity="0"/>
</linearGradient>
</defs>
</svg>
