<svg width="207" height="80" viewBox="0 0 207 80" fill="none" xmlns="http://www.w3.org/2000/svg">
<path d="M1 79L37.1498 46.5847C37.957 45.8609 39.1941 45.9121 39.9387 46.7003L56.3531 64.0734C56.8422 64.5911 57.5699 64.8096 58.2634 64.647L94.943 56.0464C95.4738 55.922 95.9307 55.5862 96.2081 55.1169L115.211 22.9666C115.976 21.6728 117.841 21.6531 118.633 22.9305L138.454 54.9054C138.818 55.4937 139.461 55.8516 140.154 55.8516H175.443C176.18 55.8516 176.858 55.4457 177.206 54.7954L206 1" stroke="url(#paint0_linear_1_873)" stroke-width="2" stroke-linecap="round" stroke-linejoin="round"/>
<path d="M1 79L37.1498 46.5847C37.957 45.8609 39.1941 45.9121 39.9387 46.7003L56.3531 64.0734C56.8422 64.5911 57.5699 64.8096 58.2634 64.647L94.943 56.0464C95.4738 55.922 95.9307 55.5862 96.2081 55.1169L115.211 22.9666C115.976 21.6728 117.841 21.6531 118.633 22.9305L138.454 54.9054C138.818 55.4937 139.461 55.8516 140.154 55.8516H175.443C176.18 55.8516 176.858 55.4457 177.206 54.7954L206 1" stroke="url(#paint1_linear_1_873)" stroke-width="2" stroke-linecap="round" stroke-linejoin="round"/>
<defs>
<linearGradient id="paint0_linear_1_873" x1="206" y1="20.4997" x2="41.0906" y2="17.5079" gradientUnits="userSpaceOnUse">
<stop stop-color="#E323FF"/>
<stop offset="1" stop-color="#7517F8"/>
</linearGradient>
<linearGradient id="paint1_linear_1_873" x1="1" y1="79" x2="206" y2="79" gradientUnits="userSpaceOnUse">
<stop stop-color="#3C354A"/>
<stop offset="1" stop-color="white" stop-opacity="0"/>
</linearGradient>
</defs>
</svg>
